<?xml version="1.0" encoding="UTF-8" standalone="no"?>
<!-- Created with Inkscape (http://www.inkscape.org/) -->
<svg id="svg8036" xmlns:rdf="http://www.w3.org/1999/02/22-rdf-syntax-ns#" xmlns="http://www.w3.org/2000/svg" height="41.342mm" width="54.319mm" version="1.1" xmlns:cc="http://creativecommons.org/ns#" xmlns:dc="http://purl.org/dc/elements/1.1/" viewBox="0 0 192.46737 146.48787">
 <metadata id="metadata8041">
  <rdf:RDF>
   <cc:Work rdf:about="">
    <dc:format>image/svg+xml</dc:format>
    <dc:type rdf:resource="http://purl.org/dc/dcmitype/StillImage"/>
    <dc:title/>
   </cc:Work>
  </rdf:RDF>
 </metadata>
 <g id="layer1" transform="translate(-31.623 -39.833)">
  <g id="g6793" transform="matrix(1.25 0 0 -1.25 -18.876 299.11)">
   <g id="g8630">
    <g id="g554" transform="translate(194.37 172.71)">
     <path id="path556" d="m0 0-34.392 34.713-2.119-41.361 36.511 6.648z" fill="#48ded0"/>
    </g>
    <g id="g558" transform="translate(157.86 166.06)">
     <path id="path560" d="m0 0-40.476-75.828 76.987 82.476-36.511-6.648z" fill="#8aded6"/>
    </g>
    <g id="g562" transform="translate(159.98 207.42)">
     <path id="path564" d="m0 0h-41.248l39.129-41.361 2.119 41.361z" fill="#35a399"/>
    </g>
    <g id="g566" transform="translate(117.39 158.7)">
     <path id="path568" d="m0 0v-68.464l40.476 75.828-40.476-7.364z" fill="#5a918c"/>
    </g>
    <g id="g570" transform="translate(157.86 166.06)">
     <path id="path572" d="m0 0-39.129 41.361h-1.347v-48.725l40.476 7.364z" fill="#3b5e5b"/>
    </g>
    <g id="g574" transform="translate(76.911 166.06)">
     <path id="path576" d="m0 0 40.476-75.828v68.464l-40.476 7.364z" fill="#3b5e5b"/>
    </g>
    <g id="g578" transform="translate(117.39 158.7)">
     <path id="path580" d="m0 0v48.726l-40.476-41.362 40.476-7.364z" fill="#5a918c"/>
    </g>
    <g id="g582" transform="translate(117.39 207.42)">
     <path id="path584" d="m0 0h-42.595l2.119-41.361 40.476 41.361z" fill="#35a399"/>
    </g>
    <g id="g586" transform="translate(40.4 172.71)">
     <path id="path588" d="m0 0 76.987-82.477-40.476 75.829-36.511 6.648z" fill="#8aded6"/>
    </g>
    <g id="g590" transform="translate(74.792 207.42)">
     <path id="path592" d="m0 0-34.392-34.713 36.511-6.648-2.119 41.361z" fill="#48ded0"/>
    </g>
   </g>
  </g>
 </g>
</svg>
